<?xml version="1.0" standalone="no"?>
<!DOCTYPE svg PUBLIC "-//W3C//DTD SVG 20010904//EN"
 "http://www.w3.org/TR/2001/REC-SVG-20010904/DTD/svg10.dtd">
<svg version="1.0" xmlns="http://www.w3.org/2000/svg"
 width="1080.000000pt" height="1080.000000pt" viewBox="0 0 1080.000000 1080.000000"
 preserveAspectRatio="xMidYMid meet">

<g transform="translate(0.000000,1080.000000) scale(0.100000,-0.100000)"
fill="#000000" stroke="none">
<path d="M6715 8933 c-49 -25 -133 -69 -185 -97 -52 -28 -153 -81 -224 -116
-98 -49 -134 -73 -148 -96 -16 -27 -109 -77 -631 -339 -369 -186 -627 -321
-650 -341 -20 -19 -47 -34 -58 -34 -12 0 -56 -19 -98 -41 -72 -40 -570 -311
-676 -369 -27 -15 -131 -71 -230 -125 -99 -54 -202 -110 -230 -125 -27 -15
-176 -96 -330 -180 -154 -84 -298 -162 -320 -175 -22 -12 -173 -95 -335 -185
-162 -90 -311 -172 -330 -183 -19 -11 -105 -58 -190 -105 -462 -253 -579 -318
-945 -522 -471 -263 -793 -447 -832 -476 -27 -20 -28 -24 -25 -100 3 -97 41
-185 111 -254 60 -59 611 -543 1081 -950 206 -178 499 -435 650 -570 1175
-1050 1367 -1215 1454 -1255 106 -49 148 -58 209 -45 75 16 125 48 437 284
157 119 368 278 470 353 758 563 1163 866 1437 1076 352 270 522 397 1365
1020 687 507 817 603 1268 932 190 138 480 352 645 476 165 123 350 257 410
298 171 116 254 182 331 264 61 63 74 83 83 126 6 29 11 56 11 61 0 26 -162
-74 -327 -200 -32 -25 -97 -71 -145 -104 -74 -50 -90 -57 -117 -51 -17 4 -37
15 -43 24 -7 10 -30 24 -51 30 -78 26 -262 128 -267 149 -10 39 -142 148 -245
203 -55 29 -158 87 -230 129 -123 73 -235 136 -615 345 -91 50 -179 100 -195
111 -46 32 -77 53 -112 75 -35 22 -43 39 -18 39 8 0 22 11 30 24 9 13 30 26
47 30 33 7 58 23 58 38 0 5 -16 6 -36 2 -31 -6 -36 -4 -32 12 2 11 15 21 34
25 17 3 42 13 55 22 33 24 39 21 39 -13 0 -17 6 -31 13 -32 6 0 19 -2 27 -3
17 -2 60 33 60 49 0 6 -9 17 -21 24 -20 13 -20 14 -3 33 9 10 21 19 27 19 12
0 177 -83 225 -114 77 -48 858 -473 1017 -553 92 -47 145 -92 145 -124 0 -29
-44 -52 -86 -45 l-35 7 17 -25 c19 -30 21 -31 60 -12 25 13 38 13 97 -1 70
-16 111 -12 120 10 12 30 -21 62 -122 117 -100 55 -125 77 -126 110 0 9 -62
46 -162 95 -89 44 -163 81 -165 82 -10 6 -61 23 -70 23 -5 0 -31 14 -57 32
-25 17 -56 32 -67 34 -26 2 -117 43 -234 103 -335 171 -478 246 -500 261 -14
9 -40 23 -57 31 -18 8 -33 18 -33 24 0 5 -5 3 -10 -5 -5 -8 -10 -10 -10 -4 0
6 12 21 27 35 14 13 23 18 18 10 -6 -10 -2 -11 16 -6 13 4 27 13 31 19 5 7 8
3 9 -9 0 -11 3 -14 6 -7 2 6 9 10 14 6 5 -3 9 -1 9 4 0 6 -15 20 -32 32 -29
18 -30 20 -8 14 14 -3 32 -12 40 -19 8 -7 28 -16 45 -19 16 -4 32 -11 35 -15
3 -5 43 -25 90 -46 47 -21 96 -46 110 -55 14 -10 36 -21 50 -25 14 -4 32 -13
40 -20 8 -8 38 -25 65 -39 28 -15 57 -30 65 -35 35 -19 113 -52 116 -48 4 4
-85 52 -391 212 -142 75 -423 219 -717 369 -158 80 -302 154 -320 164 -103 58
-518 269 -548 279 -58 19 -81 15 -175 -34z m1389 -612 c3 -5 -1 -11 -9 -14 -9
-4 -12 -1 -8 9 6 16 10 17 17 5z m-1808 -218 c60 -32 132 -69 159 -83 28 -14
80 -43 117 -64 37 -21 83 -42 103 -47 19 -6 35 -14 35 -20 0 -6 5 -7 10 -4 6
3 10 2 10 -4 0 -14 26 -7 48 12 14 13 21 14 30 5 9 -9 12 -9 12 0 0 14 73 -12
78 -29 2 -5 8 -7 13 -3 5 3 9 0 9 -5 0 -6 3 -10 8 -9 6 3 61 -25 251 -127 31
-16 70 -39 86 -51 17 -12 57 -33 90 -48 33 -15 62 -30 65 -34 3 -4 48 -29 100
-55 98 -50 145 -75 240 -129 30 -17 98 -53 150 -81 434 -227 759 -419 819
-486 13 -14 20 -20 17 -13 -4 6 -6 12 -4 12 19 -1 253 -131 253 -140 0 -7 -16
-21 -34 -31 -19 -10 -39 -25 -43 -33 -9 -16 -211 -160 -398 -284 -89 -59 -131
-81 -146 -77 -12 3 -96 48 -185 101 -305 180 -584 347 -684 409 -55 34 -174
106 -265 160 -91 54 -192 116 -224 138 -33 22 -213 128 -400 237 -647 373
-813 472 -857 510 -38 32 -42 40 -30 53 7 9 10 21 6 27 -3 5 -1 10 4 10 6 0
19 8 29 18 18 18 158 105 236 147 23 12 61 34 86 48 25 14 57 26 71 27 15 0
76 -26 135 -57z m481 -178 c0 -8 -4 -12 -8 -9 -4 2 -10 -4 -12 -13 -4 -14 -5
-13 -6 4 0 12 5 24 12 26 6 3 12 6 13 6 0 1 1 -6 1 -14z m-1932 -459 c19 -8
35 -20 35 -25 0 -6 9 -11 20 -11 11 0 24 -8 28 -17 4 -10 16 -18 26 -18 10 0
24 -8 30 -18 9 -15 7 -22 -12 -37 l-23 -19 48 -6 c26 -3 58 -8 71 -11 20 -4
23 -2 17 16 -8 26 11 26 25 1 14 -26 13 -74 -2 -89 -21 -21 -28 -13 -23 23 3
30 2 33 -10 22 -10 -10 -34 -13 -97 -9 -82 5 -83 4 -65 -15 19 -22 22 -49 7
-58 -16 -10 -50 5 -50 21 0 16 -45 20 -55 4 -3 -6 4 -10 18 -10 27 0 52 -23
42 -40 -3 -5 -23 -10 -44 -10 -67 0 -115 58 -76 90 28 24 15 30 -64 30 -59 0
-82 4 -91 15 -24 29 3 37 99 34 50 -2 91 -1 91 3 0 11 -36 28 -58 28 -12 0
-24 11 -32 30 -11 26 -10 33 5 50 17 19 60 37 93 39 7 1 28 -6 47 -13z m220
-86 c3 -5 2 -10 -4 -10 -5 0 -13 5 -16 10 -3 6 -2 10 4 10 5 0 13 -4 16 -10z
m-861 -286 c19 -19 20 -26 4 -43 -11 -10 -4 -11 33 -6 34 5 48 3 58 -9 8 -10
22 -13 39 -10 38 8 97 -33 97 -66 0 -18 -6 -26 -23 -28 -12 -2 -27 -13 -33
-24 -7 -13 -17 -18 -30 -15 -10 3 -19 1 -19 -4 0 -5 -8 -13 -17 -16 -10 -4
-24 -13 -32 -21 -9 -9 -25 -12 -45 -8 -30 6 -76 41 -76 59 0 16 -44 57 -61 57
-9 0 -19 7 -23 15 -3 8 -15 15 -26 15 -14 0 -20 6 -20 23 0 17 16 30 68 59 76
42 85 44 106 22z m1324 -96 c17 -11 35 -30 38 -43 5 -20 11 -23 34 -18 21 4
40 -3 77 -28 26 -18 51 -37 55 -43 11 -17 -14 -38 -38 -32 -16 4 -21 2 -20
-12 1 -13 -6 -17 -30 -16 -27 1 -30 -1 -26 -22 4 -20 0 -24 -19 -24 -32 0
-129 61 -129 81 0 11 -12 18 -37 23 -119 19 -140 107 -38 152 36 17 88 10 133
-18z m-1598 12 c0 -5 -5 -10 -11 -10 -5 0 -7 5 -4 10 3 6 8 10 11 10 2 0 4 -4
4 -10z m600 -66 c0 -18 -7 -40 -16 -49 -22 -22 -25 -15 -13 30 6 21 9 50 6 64
-5 24 -4 25 9 6 8 -10 14 -33 14 -51z m4750 -52 c113 -58 235 -121 272 -140
117 -59 57 -72 -82 -18 -68 26 -90 31 -112 24 -34 -12 -81 -5 -104 16 -11 10
-30 26 -44 36 -21 17 -23 21 -10 31 11 8 12 12 2 16 -6 2 -10 8 -7 13 3 4 -21
27 -53 51 -31 24 -70 54 -87 68 -29 23 -29 24 -5 16 14 -4 117 -55 230 -113z
m-3469 16 c19 -38 25 -94 11 -114 -7 -11 -52 -29 -52 -21 0 3 7 18 15 33 19
36 11 97 -18 137 l-20 29 22 -14 c13 -7 31 -30 42 -50z m-591 38 c0 -2 -12
-25 -27 -52 -20 -35 -29 -44 -31 -31 -4 18 36 87 51 87 4 0 7 -2 7 -4z m-1840
-236 c0 -5 -5 -10 -11 -10 -5 0 -7 5 -4 10 3 6 8 10 11 10 2 0 4 -4 4 -10z
m338 -26 c99 -58 91 -76 -40 -99 -46 -8 -101 -22 -123 -30 -45 -19 -85 -13
-85 14 0 19 71 54 138 67 34 7 41 18 17 28 -8 3 -15 14 -15 24 0 43 31 42 108
-4z m1193 -24 c23 -13 24 -38 3 -69 -16 -23 -16 -23 7 -15 13 5 44 9 69 9 38
0 45 -3 48 -21 2 -14 -6 -27 -24 -38 l-26 -18 36 -24 c36 -24 46 -47 26 -59
-14 -9 -90 36 -90 53 0 12 -4 12 -25 -2 -32 -21 -51 -20 -67 2 -7 10 -25 22
-40 26 -18 4 -28 13 -28 24 0 13 -8 18 -27 17 -21 0 -28 5 -28 20 0 14 21 34
65 63 70 46 73 47 101 32z m-991 -71 c0 -28 -6 -41 -24 -53 l-25 -16 15 35 c8
19 14 49 14 67 0 25 3 29 10 18 5 -8 10 -31 10 -51z m1299 -17 c10 -20 21 -56
24 -80 4 -36 3 -43 -11 -40 -13 2 -16 14 -13 55 2 41 -2 56 -18 72 -12 12 -21
26 -21 32 0 18 20 -1 39 -39z m1111 18 c19 -6 20 -8 6 -9 -15 -1 -16 -4 -6
-16 7 -9 10 -27 7 -44 -9 -42 13 -56 83 -53 41 2 61 -2 70 -13 24 -29 4 -42
-87 -55 -133 -18 -131 -16 -78 -56 51 -39 57 -61 20 -70 -19 -5 -37 3 -75 31
-27 20 -50 44 -50 52 0 13 -8 14 -40 9 -44 -7 -80 6 -80 29 0 15 71 40 105 36
17 -1 16 0 -5 11 -18 10 -25 22 -25 45 0 17 -3 35 -7 39 -14 13 -9 44 8 51 13
5 13 7 2 14 -17 11 118 10 152 -1z m-1710 -9 c0 -6 -4 -13 -10 -16 -5 -3 -10
1 -10 9 0 9 5 16 10 16 6 0 10 -4 10 -9z m1765 -11 c3 -6 -1 -7 -9 -4 -18 7
-21 14 -7 14 6 0 13 -4 16 -10z m-340 -20 c-3 -5 -13 -10 -21 -10 -8 0 -12 5
-9 10 3 6 13 10 21 10 8 0 12 -4 9 -10z m42 4 c-3 -3 -12 -4 -19 -1 -8 3 -5 6
6 6 11 1 17 -2 13 -5z m-1506 -31 c-12 -20 -14 -14 -5 12 4 9 9 14 11 11 3 -2
0 -13 -6 -23z m1938 -21 c61 -45 83 -151 39 -192 -27 -25 -40 -26 -37 -2 4 42
-1 73 -12 66 -8 -4 -8 0 0 15 7 11 16 20 20 18 13 -3 14 5 2 36 -6 15 -15 27
-21 27 -5 0 -10 6 -10 13 0 6 -14 25 -32 40 -27 24 -29 26 -8 16 14 -6 40 -23
59 -37z m-455 -19 c-9 -36 -12 -39 -27 -24 -9 9 -9 14 3 21 11 7 11 10 2 10
-7 0 -10 5 -7 10 3 6 13 10 21 10 11 0 13 -7 8 -27z m-140 -30 c-10 -21 -21
-54 -25 -73 -6 -33 -7 -33 -8 13 -1 35 5 57 20 79 28 39 36 28 13 -19z m196
-3 c0 -5 -4 -10 -10 -10 -5 0 -10 5 -10 10 0 6 5 10 10 10 6 0 10 -4 10 -10z
m1255 -58 c-3 -3 -11 0 -18 7 -9 10 -8 11 6 5 10 -3 15 -9 12 -12z m-4569 -21
c-6 -9 -96 -43 -96 -36 0 2 15 12 33 24 32 21 73 29 63 12z m302 -83 c24 -20
11 -43 -40 -73 -28 -16 -51 -34 -51 -40 2 -19 -20 -35 -49 -35 -16 0 -38 -4
-48 -10 -13 -7 -24 -5 -40 8 -21 17 -21 19 -6 34 15 15 14 18 -9 36 -27 22
-32 46 -12 59 6 4 52 12 102 18 127 14 138 14 153 3z m2040 -5 c2 -8 -5 -13
-17 -13 -21 0 -35 13 -24 24 10 10 36 3 41 -11z m1012 7 c0 -5 -2 -10 -4 -10
-3 0 -8 5 -11 10 -3 6 -1 10 4 10 6 0 11 -4 11 -10z m-1640 -10 c8 -5 11 -10
5 -10 -5 0 -17 5 -25 10 -8 5 -10 10 -5 10 6 0 17 -5 25 -10z m-1897 -51 c-9
-18 -18 -28 -20 -22 -4 12 27 67 33 60 2 -2 -3 -19 -13 -38z m1807 -7 c44 -33
33 -90 -22 -108 -11 -3 -32 -19 -47 -35 -37 -40 -84 -46 -141 -17 -40 20 -45
27 -48 60 -3 33 1 40 30 58 18 11 40 20 49 20 9 0 23 7 30 16 31 38 102 41
149 6z m-1160 -49 c-10 -16 -11 -15 -6 7 3 14 6 34 7 45 1 13 3 11 6 -7 2 -15
-1 -35 -7 -45z m2430 43 c0 -3 -4 -8 -10 -11 -5 -3 -10 -1 -10 4 0 6 5 11 10
11 6 0 10 -2 10 -4z m-215 -15 c-16 -16 -88 -43 -80 -31 4 7 21 18 39 26 37
16 54 18 41 5z m333 0 c11 -7 11 -9 -1 -14 -9 -3 -18 1 -21 9 -6 16 2 18 22 5z
m-174 -17 c20 -19 20 -18 0 -56 l-16 -31 27 7 c66 17 86 18 100 6 26 -21 17
-36 -46 -79 -72 -49 -100 -55 -114 -24 -6 15 -16 21 -26 18 -17 -6 -49 18 -49
36 0 5 -11 9 -25 9 -14 0 -28 7 -32 15 -5 16 22 55 39 55 5 0 14 5 21 10 66
55 93 62 121 34z m272 -32 c64 -47 101 -142 73 -193 -16 -31 -26 -14 -22 40 5
61 -12 96 -69 145 -49 43 -38 48 18 8z m-1286 -38 c0 -18 -7 -38 -17 -45 -15
-12 -16 -12 -10 4 4 10 7 37 7 60 0 31 3 38 10 27 5 -8 10 -29 10 -46z m710
-7 c0 -1 -9 -20 -20 -42 -21 -41 -28 -24 -8 20 9 20 28 35 28 22z m1834 -27
c120 -45 194 -119 203 -203 6 -53 -7 -80 -49 -101 -39 -20 -45 -15 -22 18 27
43 30 100 5 125 -12 12 -21 26 -21 31 0 6 -7 13 -15 16 -8 4 -13 9 -11 13 2 3
-16 7 -42 9 -55 4 -48 -12 22 -47 54 -26 62 -37 46 -56 -19 -23 -61 -18 -110
15 -81 54 -97 55 -204 19 -52 -17 -102 -29 -110 -26 -21 8 -31 54 -16 72 8 9
30 15 56 15 49 0 133 37 134 59 0 8 -6 11 -16 7 -8 -3 -13 -2 -10 3 19 30 -96
49 -117 20 -7 -9 -17 -14 -23 -12 -7 2 -19 -3 -28 -12 -15 -15 -16 -15 -16 4
0 24 0 24 -34 11 -35 -13 -33 3 2 20 68 33 287 33 376 0z m-1407 -61 c8 -8 17
-8 33 1 29 15 54 -4 46 -36 -4 -13 -1 -26 4 -29 17 -11 -10 -37 -29 -29 -9 4
-34 8 -56 8 l-40 1 -2 48 c-2 39 1 47 15 47 10 0 23 -5 29 -11z m933 -28 c0
-5 -7 -25 -15 -44 -8 -20 -15 -53 -16 -74 0 -36 -1 -36 -10 -13 -11 27 -7 68
10 113 10 25 31 38 31 18z m130 -1 c0 -5 -2 -10 -4 -10 -3 0 -8 5 -11 10 -3 6
-1 10 4 10 6 0 11 -4 11 -10z m-4754 -30 c-32 -17 -61 -29 -63 -26 -7 7 81 56
102 56 11 0 -6 -13 -39 -30z m3507 -15 c-3 -9 -8 -14 -10 -11 -3 3 -2 9 2 15
9 16 15 13 8 -4z m-3160 -54 c16 -16 1 -35 -49 -61 -27 -13 -75 -40 -107 -58
-63 -36 -102 -39 -102 -7 0 13 19 30 58 53 51 31 56 36 40 47 -15 11 -15 15
-3 29 11 14 26 16 84 12 38 -3 74 -10 79 -15z m1057 4 c0 -6 -50 -31 -80 -39
-18 -5 -14 0 15 18 37 24 65 33 65 21z m4823 -84 c31 -19 49 -41 33 -41 -2 0
-11 -3 -20 -6 -11 -4 -16 0 -16 14 0 12 -19 32 -55 56 -30 20 -55 38 -55 41 0
4 34 -16 113 -64z m-6372 18 c-12 -19 -21 -30 -21 -26 0 14 31 69 36 64 3 -3
-4 -20 -15 -38z m672 -50 c-5 -5 -6 11 -3 34 4 41 5 41 8 8 2 -18 0 -37 -5
-42z m1185 35 c35 -23 52 -41 50 -52 -5 -25 -47 -27 -79 -3 -36 27 -44 27 -25
-1 39 -55 -1 -109 -87 -116 -94 -8 -159 48 -122 104 27 42 80 21 68 -27 -7
-24 21 -35 53 -21 32 15 32 42 0 42 -25 0 -56 23 -56 41 0 10 114 68 135 69 6
0 34 -16 63 -36z m3322 -15 c0 -6 -4 -7 -10 -4 -5 3 -10 11 -10 16 0 6 5 7 10
4 6 -3 10 -11 10 -16z m-2255 2 c-6 -5 -21 -12 -35 -15 l-25 -7 25 15 c28 17
50 21 35 7z m-871 -71 c3 -21 0 -47 -8 -65 -13 -28 -13 -26 -13 48 1 77 10 84
21 17z m1036 50 c0 -5 -11 -10 -25 -10 -14 0 -25 5 -25 10 0 6 11 10 25 10 14
0 25 -4 25 -10z m272 -15 c61 -41 92 -107 89 -187 -2 -50 -21 -29 -21 23 0 63
-10 82 -73 142 -55 51 -53 61 5 22z m-1985 -7 c-3 -8 -6 -5 -6 6 -1 11 2 17 5
13 3 -3 4 -12 1 -19z m3893 -14 c0 -8 -4 -12 -10 -9 -5 3 -10 10 -10 16 0 5 5
9 10 9 6 0 10 -7 10 -16z m-2065 -4 c28 0 75 -51 75 -81 0 -81 -170 -150 -250
-102 -61 35 -60 111 1 99 24 -4 29 -2 29 13 0 40 76 88 118 75 8 -2 20 -4 27
-4z m1195 -29 c0 -5 -17 -11 -38 -15 -21 -3 -60 -17 -86 -31 -52 -28 -60 -30
-51 -15 9 15 79 49 122 59 51 12 53 12 53 2z m296 -43 c24 -11 46 -24 49 -28
6 -10 -79 22 -120 45 l-30 17 29 -7 c15 -3 48 -15 72 -27z m-109 -30 c19 -24
22 -58 6 -73 -16 -17 -14 -17 47 -5 85 16 113 -30 30 -50 -54 -13 -57 -17 -35
-46 20 -27 19 -41 -10 -69 -52 -53 -152 -20 -143 46 4 28 4 28 -56 31 -48 2
-61 7 -64 20 -3 13 10 19 59 29 l62 12 -27 22 c-24 19 -27 27 -21 53 12 55
116 76 152 30z m229 -50 c62 -68 72 -153 24 -208 l-30 -35 14 35 c21 54 19
133 -4 163 -11 14 -20 30 -20 36 0 6 -9 15 -20 21 -11 6 -20 15 -20 21 0 14
30 -3 56 -33z m-657 -39 c-7 -18 -13 -55 -13 -82 0 -39 -2 -44 -9 -25 -11 28
-2 115 14 134 19 23 23 8 8 -27z m-4754 -14 c-37 -25 -70 -44 -72 -42 -6 6 42
45 82 66 67 36 63 23 -10 -24z m360 -55 c29 -32 22 -70 -18 -105 -52 -45 -125
-78 -175 -79 -36 -1 -48 4 -68 27 -41 48 -12 96 90 147 72 37 143 41 171 10z
m180 0 c3 -5 1 -10 -4 -10 -6 0 -11 5 -11 10 0 6 2 10 4 10 3 0 8 -4 11 -10z
m890 -22 c-33 -16 -68 -37 -77 -46 -11 -9 -18 -11 -18 -4 0 20 105 81 140 81
8 0 -12 -14 -45 -31z m-1545 -28 c0 -5 -9 -24 -20 -42 -22 -36 -27 -18 -7 25
12 27 27 36 27 17z m674 -26 c3 -8 2 -12 -4 -9 -6 3 -10 10 -10 16 0 14 7 11
14 -7z m1204 -10 c37 -24 48 -58 28 -89 -23 -35 -54 -45 -139 -45 l-72 -1 28
-20 c32 -25 35 -45 6 -54 -22 -7 -65 18 -129 74 -34 30 -34 31 -16 46 15 11
48 15 137 15 65 0 120 4 123 9 11 16 -22 33 -52 26 -21 -4 -34 -1 -46 10 -45
46 68 70 132 29z m1122 -10 c0 -3 -17 -12 -37 -21 -21 -8 -51 -24 -66 -35 -16
-11 -30 -18 -33 -15 -6 5 69 60 96 70 20 7 40 8 40 1z m-2338 -36 c-8 -8 -9
-4 -5 13 4 13 8 18 11 10 2 -7 -1 -18 -6 -23z m1428 -57 c0 -30 -7 -55 -20
-71 -16 -20 -20 -22 -20 -7 0 9 4 17 9 17 13 0 22 100 10 124 -10 20 -10 20 5
2 10 -12 16 -39 16 -65z m4425 49 c-3 -5 -20 -19 -38 -30 -32 -22 -32 -22 3 9
37 32 45 37 35 21z m-5115 -4 c0 -3 -4 -8 -10 -11 -5 -3 -10 -1 -10 4 0 6 5
11 10 11 6 0 10 -2 10 -4z m-1244 -33 c-10 -10 -19 5 -10 18 6 11 8 11 12 0 2
-7 1 -15 -2 -18z m3163 -24 c24 -29 27 -72 5 -90 -21 -18 -48 0 -52 35 -2 18
-9 26 -23 26 -19 0 -19 -1 2 -29 46 -63 -12 -125 -110 -118 -44 3 -59 9 -78
31 -13 15 -23 36 -23 48 0 33 37 75 93 103 69 35 154 32 186 -6z m1099 -13
c-31 -13 -74 -33 -95 -46 -36 -21 -37 -21 -19 -1 25 28 114 71 145 71 19 0 11
-7 -31 -24z m2022 20 c0 -3 -15 -14 -32 -26 l-33 -22 30 26 c31 27 35 29 35
22z m-2924 -83 c3 -18 3 -45 -2 -60 -6 -23 -9 -17 -14 37 -3 36 -10 72 -14 80
-4 8 0 6 8 -4 9 -11 19 -34 22 -53z m1334 19 c77 -52 113 -107 118 -180 3 -46
1 -61 -13 -72 -16 -13 -17 -11 -11 41 5 42 2 63 -11 91 -21 43 -99 128 -117
128 -7 0 -21 7 -32 15 -14 11 -15 14 -4 14 8 0 40 -16 70 -37z m-2043 6 c-3
-8 -6 -5 -6 6 -1 11 2 17 5 13 3 -3 4 -12 1 -19z m3563 8 c0 -2 -8 -10 -17
-17 -16 -13 -17 -12 -4 4 13 16 21 21 21 13z m-40 -30 c0 -2 -109 -84 -242
-182 -295 -216 -644 -474 -1038 -768 -162 -121 -531 -395 -820 -608 -289 -214
-628 -465 -755 -558 -126 -94 -279 -206 -340 -251 -60 -44 -157 -115 -215
-158 -180 -133 -311 -224 -315 -219 -3 2 39 35 93 73 115 83 265 192 617 453
143 106 383 284 533 395 150 111 455 337 677 502 936 696 1189 882 1450 1070
88 64 203 147 255 185 97 71 100 73 100 66z m-1679 -99 c73 -53 95 -88 57 -95
-19 -4 -167 95 -176 116 -5 14 14 32 34 32 6 0 44 -24 85 -53z m69 38 c29 -36
-19 -70 -53 -37 -17 17 -18 23 -7 36 16 20 44 20 60 1z m-481 -26 c-13 -26
-20 -21 -12 9 3 12 9 19 14 16 5 -3 4 -14 -2 -25z m-22 -76 c-3 -10 -5 -4 -5
12 0 17 2 24 5 18 2 -7 2 -21 0 -30z m376 23 c21 -16 22 -42 1 -50 -22 -8 -26
-7 -48 9 -19 14 -19 15 -1 35 21 23 24 24 48 6z m-3750 -33 c-7 -2 -40 -23
-75 -45 -41 -26 -56 -33 -43 -18 24 27 117 82 125 73 3 -3 0 -8 -7 -10z m432
-3 c3 -5 1 -10 -4 -10 -6 0 -11 5 -11 10 0 6 2 10 4 10 3 0 8 -4 11 -10z m-69
-57 c-10 -10 -19 5 -10 18 6 11 8 11 12 0 2 -7 1 -15 -2 -18z m1034 -69 c-25
-14 -51 -31 -59 -37 -12 -9 -13 -9 -7 1 11 18 78 61 96 61 8 1 -5 -11 -30 -25z
m-1163 -19 l28 -25 -25 -20 c-14 -11 -32 -20 -40 -20 -8 0 -26 9 -40 20 l-25
20 28 25 c15 14 32 25 37 25 5 0 22 -11 37 -25z m-407 1 c0 -3 -4 -8 -10 -11
-5 -3 -10 -1 -10 4 0 6 5 11 10 11 6 0 10 -2 10 -4z m707 -38 c-3 -8 -6 -5 -6
6 -1 11 2 17 5 13 3 -3 4 -12 1 -19z m1241 -10 c26 -20 32 -31 32 -61 0 -20
-8 -32 -32 -46 -18 -11 -37 -25 -43 -31 -47 -53 -59 -60 -107 -60 -87 0 -145
51 -120 105 24 52 79 38 68 -17 -5 -23 -2 -29 18 -34 42 -10 88 28 51 42 -20
8 -19 40 1 48 8 3 24 1 34 -4 28 -15 60 -12 60 5 0 15 -16 19 -53 15 -10 -1
-25 4 -33 10 -55 46 66 74 124 28z m1092 -43 c-86 -53 -98 -58 -60 -24 33 30
84 58 105 59 6 0 -15 -16 -45 -35z m470 -1 c27 -14 60 -40 73 -57 23 -31 26
-57 5 -57 -7 0 -7 5 1 13 8 11 6 18 -9 32 -11 10 -20 14 -20 9 0 -5 -5 -1 -11
9 -5 9 -15 17 -20 17 -6 0 -18 9 -27 20 -10 12 -27 22 -39 23 -13 1 -23 5 -23
9 0 14 19 9 70 -18z m-1341 -71 c1 -23 -3 -44 -7 -47 -5 -3 -8 25 -8 61 0 39
3 58 7 47 4 -10 8 -38 8 -61z m-1489 27 c0 -5 -2 -10 -4 -10 -3 0 -8 5 -11 10
-3 6 -1 10 4 10 6 0 11 -4 11 -10z m737 -42 c-3 -8 -6 -5 -6 6 -1 11 2 17 5
13 3 -3 4 -12 1 -19z m1921 -25 c3 -32 5 -33 48 -33 40 0 44 -2 44 -25 0 -22
-4 -25 -40 -25 -37 0 -39 -2 -46 -35 -4 -24 -12 -35 -23 -35 -24 0 -41 20 -41
47 0 19 -5 23 -32 23 -42 0 -61 12 -56 36 2 14 13 20 40 22 32 3 38 7 43 33 6
25 11 30 33 27 22 -2 28 -9 30 -35z m-1418 -3 c0 -5 -2 -10 -4 -10 -3 0 -8 5
-11 10 -3 6 -1 10 4 10 6 0 11 -4 11 -10z m1730 -62 c10 -36 8 -77 -5 -98 -14
-23 -20 -6 -21 63 -1 39 -5 81 -9 92 -7 20 -7 20 9 0 9 -11 21 -36 26 -57z
m-749 29 c-8 -8 -11 -7 -11 4 0 20 13 34 18 19 3 -7 -1 -17 -7 -23z m-14 -74
c-3 -10 -5 -2 -5 17 0 19 2 27 5 18 2 -10 2 -26 0 -35z m-2011 -116 c-10 -7
-42 -27 -70 -45 -51 -32 -51 -32 -17 -3 31 27 88 61 101 60 3 0 -4 -6 -14 -12z
m255 -102 c0 -5 27 -32 60 -58 32 -27 59 -53 59 -57 0 -5 -9 -14 -19 -20 -17
-8 -32 0 -95 50 -70 56 -86 77 -70 93 10 10 64 3 65 -8z m1212 -35 c-28 -16
-54 -34 -58 -40 -3 -5 -11 -10 -16 -10 -20 0 3 21 54 50 29 16 57 30 62 30 6
0 -13 -14 -42 -30z m-1249 -60 c42 -33 76 -64 76 -69 0 -16 -29 -33 -42 -25
-43 25 -148 117 -148 129 0 12 13 22 31 24 4 1 41 -26 83 -59z m1817 -2 c22
-31 21 -31 -19 7 -23 22 -42 41 -42 43 0 11 43 -24 61 -50z m-2214 20 c-3 -8
-6 -5 -6 6 -1 11 2 17 5 13 3 -3 4 -12 1 -19z m754 -45 c-8 -15 -10 -15 -11
-2 0 17 10 32 18 25 2 -3 -1 -13 -7 -23z m1189 -64 c68 -53 76 -65 48 -82 -17
-11 -52 8 -128 71 -30 26 -33 32 -21 46 20 24 30 21 101 -35z m314 23 c8 -15
15 -41 17 -57 3 -41 -10 -97 -22 -89 -6 4 -6 11 1 19 12 14 5 88 -11 133 -12
31 -2 28 15 -6z m-750 -27 c-4 -8 -8 -15 -10 -15 -2 0 -4 7 -4 15 0 8 4 15 10
15 5 0 7 -7 4 -15z m-17 -87 c-2 -13 -4 -5 -4 17 -1 22 1 32 4 23 2 -10 2 -28
0 -40z m-517 -222 c0 -3 -12 -11 -27 -18 -16 -8 -41 -23 -58 -33 -24 -16 -27
-16 -17 -3 7 9 32 26 55 37 45 23 47 23 47 17z m-120 -70 c0 -2 -8 -10 -17
-17 -16 -13 -17 -12 -4 4 13 16 21 21 21 13z m300 -81 c21 -26 49 -27 81 -5
29 21 31 21 50 4 19 -17 19 -18 -8 -47 l-28 -29 23 -18 c26 -21 28 -33 7 -50
-12 -10 -21 -8 -48 13 l-33 25 -36 -22 c-36 -20 -38 -20 -55 -3 -17 18 -17 19
11 44 l29 25 -29 23 c-24 20 -27 25 -15 39 17 20 35 20 51 1z m401 -81 c-2
-54 -4 -64 -10 -64 -3 0 -7 30 -7 67 -1 49 1 62 8 49 6 -10 9 -33 9 -52z
m-794 24 c-3 -8 -6 -5 -6 6 -1 11 2 17 5 13 3 -3 4 -12 1 -19z"/>
<path d="M6791 7867 c0 -12 3 -16 6 -9 4 10 8 10 19 1 12 -10 13 -9 8 4 -10
26 -34 29 -33 4z"/>
<path d="M6851 7858 c11 -20 29 -24 29 -7 0 5 -5 7 -12 3 -7 -5 -9 -2 -6 8 4
8 0 15 -7 15 -10 0 -11 -5 -4 -19z"/>
<path d="M8646 6832 c1 -36 28 -41 30 -7 1 15 -1 24 -4 21 -3 -3 -10 -2 -16 3
-8 7 -11 2 -10 -17z"/>
<path d="M8693 6813 c4 -3 1 -13 -6 -22 -11 -14 -10 -15 7 -1 18 14 19 13 14
-1 -6 -15 -3 -15 22 -6 l29 11 -31 13 c-34 14 -45 16 -35 6z"/>
<path d="M8734 6768 c-4 -7 -4 -10 1 -6 4 4 14 3 22 -3 9 -8 17 -8 26 0 8 6
16 10 18 8 2 -1 1 2 -4 8 -5 6 -11 4 -17 -5 -7 -10 -10 -11 -10 -2 0 6 -6 12
-14 12 -8 0 -18 -6 -22 -12z"/>
<path d="M8786 6741 c-3 -5 1 -11 9 -14 9 -4 12 -1 8 9 -6 16 -10 17 -17 5z"/>
<path d="M4230 6900 c0 -5 12 -10 26 -10 14 0 23 4 19 10 -3 6 -15 10 -26 10
-10 0 -19 -4 -19 -10z"/>
<path d="M5429 6956 c-34 -17 -28 -31 16 -34 22 -2 46 -10 53 -19 9 -13 15
-14 24 -5 9 9 9 12 0 12 -7 0 -17 11 -23 24 -14 29 -40 38 -70 22z"/>
<path d="M6221 6574 c13 -16 47 -18 68 -5 18 12 3 19 -42 19 -31 0 -36 -2 -26
-14z"/>
<path d="M6238 6443 c7 -3 16 -2 19 1 4 3 -2 6 -13 5 -11 0 -14 -3 -6 -6z"/>
<path d="M4350 6180 c0 -5 7 -10 15 -10 8 0 15 5 15 10 0 6 -7 10 -15 10 -8 0
-15 -4 -15 -10z"/>
<path d="M4247 6133 c-19 -19 16 -39 47 -27 13 5 14 9 5 20 -12 15 -41 19 -52
7z"/>
<path d="M7036 6082 c-9 -15 24 -52 48 -52 12 0 31 -7 42 -15 22 -17 54 -20
54 -5 0 27 3 25 -37 29 -7 0 -13 8 -13 16 0 8 -12 17 -27 21 -16 3 -35 8 -45
10 -9 3 -19 1 -22 -4z"/>
<path d="M7205 6020 c3 -5 8 -10 11 -10 2 0 4 5 4 10 0 6 -5 10 -11 10 -5 0
-7 -4 -4 -10z"/>
<path d="M5073 5673 c-20 -8 -15 -20 11 -27 30 -7 56 2 56 20 0 14 -41 18 -67
7z"/>
<path d="M4990 5621 c0 -10 7 -22 16 -25 26 -10 28 0 5 23 -20 20 -21 20 -21
2z"/>
<path d="M6440 5600 c-9 -6 -10 -10 -3 -10 6 0 15 5 18 10 8 12 4 12 -15 0z"/>
<path d="M1566 5430 c-42 -21 -86 -58 -86 -72 0 -19 62 -5 106 25 82 54 66 90
-20 47z"/>
<path d="M4348 5199 c-40 -23 -8 -56 37 -39 28 11 33 35 9 44 -21 8 -26 7 -46
-5z"/>
<path d="M8885 7932 c16 -16 206 -114 211 -109 3 3 -46 31 -108 62 -62 32
-108 53 -103 47z"/>
<path d="M9137 7800 c20 -22 102 -64 110 -57 2 2 -25 19 -59 37 -35 18 -58 27
-51 20z"/>
<path d="M8715 7680 c9 -15 45 -32 45 -22 0 5 -12 14 -26 20 -14 7 -23 8 -19
2z"/>
<path d="M8778 7643 c7 -3 16 -2 19 1 4 3 -2 6 -13 5 -11 0 -14 -3 -6 -6z"/>
<path d="M9155 7442 c11 -11 100 -62 109 -62 3 0 6 4 6 9 0 5 -24 19 -52 32
-73 33 -75 33 -63 21z"/>
<path d="M10135 7200 c-3 -5 1 -11 7 -13 10 -4 9 -8 -2 -16 -8 -5 -11 -14 -6
-18 5 -4 11 -2 13 5 3 6 11 12 19 12 8 0 14 6 14 14 0 15 -37 29 -45 16z"/>
</g>
</svg>
